<?xml version="1.0"?>
<!-- Generated by SVGo (float) -->
<svg width="1010.00" height="1010.00"
     xmlns="http://www.w3.org/2000/svg"
     xmlns:xlink="http://www.w3.org/1999/xlink">
<circle cx="505.00" cy="505.00" r="5.00" style="fill:green" />
<circle cx="1005.00" cy="505.00" r="2.00" style="fill:green" />
<circle cx="1004.75" cy="520.71" r="2.00" style="fill:green" />
<circle cx="1004.01" cy="536.40" r="2.00" style="fill:green" />
<circle cx="1002.78" cy="552.05" r="2.00" style="fill:green" />
<circle cx="1001.06" cy="567.67" r="2.00" style="fill:green" />
<circle cx="998.84" cy="583.22" r="2.00" style="fill:green" />
<circle cx="996.14" cy="598.69" r="2.00" style="fill:green" />
<circle cx="992.96" cy="614.07" r="2.00" style="fill:green" />
<circle cx="989.29" cy="629.34" r="2.00" style="fill:green" />
<circle cx="985.15" cy="644.50" r="2.00" style="fill:green" />
<circle cx="980.53" cy="659.51" r="2.00" style="fill:green" />
<circle cx="975.44" cy="674.37" r="2.00" style="fill:green" />
<circle cx="969.89" cy="689.06" r="2.00" style="fill:green" />
<circle cx="963.88" cy="703.57" r="2.00" style="fill:green" />
<circle cx="957.41" cy="717.89" r="2.00" style="fill:green" />
<circle cx="950.50" cy="732.00" r="2.00" style="fill:green" />
<circle cx="943.15" cy="745.88" r="2.00" style="fill:green" />
<circle cx="935.37" cy="759.52" r="2.00" style="fill:green" />
<circle cx="927.16" cy="772.91" r="2.00" style="fill:green" />
<circle cx="918.54" cy="786.04" r="2.00" style="fill:green" />
<circle cx="909.51" cy="798.89" r="2.00" style="fill:green" />
<circle cx="900.08" cy="811.45" r="2.00" style="fill:green" />
<circle cx="890.26" cy="823.71" r="2.00" style="fill:green" />
<circle cx="880.06" cy="835.66" r="2.00" style="fill:green" />
<circle cx="869.48" cy="847.27" r="2.00" style="fill:green" />
<circle cx="858.55" cy="858.55" r="2.00" style="fill:green" />
<circle cx="847.27" cy="869.48" r="2.00" style="fill:green" />
<circle cx="835.66" cy="880.06" r="2.00" style="fill:green" />
<circle cx="823.71" cy="890.26" r="2.00" style="fill:green" />
<circle cx="811.45" cy="900.08" r="2.00" style="fill:green" />
<circle cx="798.89" cy="909.51" r="2.00" style="fill:green" />
<circle cx="786.04" cy="918.54" r="2.00" style="fill:green" />
<circle cx="772.91" cy="927.16" r="2.00" style="fill:green" />
<circle cx="759.52" cy="935.37" r="2.00" style="fill:green" />
<circle cx="745.88" cy="943.15" r="2.00" style="fill:green" />
<circle cx="732.00" cy="950.50" r="2.00" style="fill:green" />
<circle cx="717.89" cy="957.41" r="2.00" style="fill:green" />
<circle cx="703.57" cy="963.88" r="2.00" style="fill:green" />
<circle cx="689.06" cy="969.89" r="2.00" style="fill:green" />
<circle cx="674.37" cy="975.44" r="2.00" style="fill:green" />
<circle cx="659.51" cy="980.53" r="2.00" style="fill:green" />
<circle cx="644.50" cy="985.15" r="2.00" style="fill:green" />
<circle cx="629.34" cy="989.29" r="2.00" style="fill:green" />
<circle cx="614.07" cy="992.96" r="2.00" style="fill:green" />
<circle cx="598.69" cy="996.14" r="2.00" style="fill:green" />
<circle cx="583.22" cy="998.84" r="2.00" style="fill:green" />
<circle cx="567.67" cy="1001.06" r="2.00" style="fill:green" />
<circle cx="552.05" cy="1002.78" r="2.00" style="fill:green" />
<circle cx="536.40" cy="1004.01" r="2.00" style="fill:green" />
<circle cx="520.71" cy="1004.75" r="2.00" style="fill:green" />
<circle cx="505.00" cy="1005.00" r="2.00" style="fill:green" />
<circle cx="489.29" cy="1004.75" r="2.00" style="fill:green" />
<circle cx="473.60" cy="1004.01" r="2.00" style="fill:green" />
<circle cx="457.95" cy="1002.78" r="2.00" style="fill:green" />
<circle cx="442.33" cy="1001.06" r="2.00" style="fill:green" />
<circle cx="426.78" cy="998.84" r="2.00" style="fill:green" />
<circle cx="411.31" cy="996.14" r="2.00" style="fill:green" />
<circle cx="395.93" cy="992.96" r="2.00" style="fill:green" />
<circle cx="380.66" cy="989.29" r="2.00" style="fill:green" />
<circle cx="365.50" cy="985.15" r="2.00" style="fill:green" />
<circle cx="350.49" cy="980.53" r="2.00" style="fill:green" />
<circle cx="335.63" cy="975.44" r="2.00" style="fill:green" />
<circle cx="320.94" cy="969.89" r="2.00" style="fill:green" />
<circle cx="306.43" cy="963.88" r="2.00" style="fill:green" />
<circle cx="292.11" cy="957.41" r="2.00" style="fill:green" />
<circle cx="278.00" cy="950.50" r="2.00" style="fill:green" />
<circle cx="264.12" cy="943.15" r="2.00" style="fill:green" />
<circle cx="250.48" cy="935.37" r="2.00" style="fill:green" />
<circle cx="237.09" cy="927.16" r="2.00" style="fill:green" />
<circle cx="223.96" cy="918.54" r="2.00" style="fill:green" />
<circle cx="211.11" cy="909.51" r="2.00" style="fill:green" />
<circle cx="198.55" cy="900.08" r="2.00" style="fill:green" />
<circle cx="186.29" cy="890.26" r="2.00" style="fill:green" />
<circle cx="174.34" cy="880.06" r="2.00" style="fill:green" />
<circle cx="162.73" cy="869.48" r="2.00" style="fill:green" />
<circle cx="151.45" cy="858.55" r="2.00" style="fill:green" />
<circle cx="140.52" cy="847.27" r="2.00" style="fill:green" />
<circle cx="129.94" cy="835.66" r="2.00" style="fill:green" />
<circle cx="119.74" cy="823.71" r="2.00" style="fill:green" />
<circle cx="109.92" cy="811.45" r="2.00" style="fill:green" />
<circle cx="100.49" cy="798.89" r="2.00" style="fill:green" />
<circle cx="91.46" cy="786.04" r="2.00" style="fill:green" />
<circle cx="82.84" cy="772.91" r="2.00" style="fill:green" />
<circle cx="74.63" cy="759.52" r="2.00" style="fill:green" />
<circle cx="66.85" cy="745.88" r="2.00" style="fill:green" />
<circle cx="59.50" cy="732.00" r="2.00" style="fill:green" />
<circle cx="52.59" cy="717.89" r="2.00" style="fill:green" />
<circle cx="46.12" cy="703.57" r="2.00" style="fill:green" />
<circle cx="40.11" cy="689.06" r="2.00" style="fill:green" />
<circle cx="34.56" cy="674.37" r="2.00" style="fill:green" />
<circle cx="29.47" cy="659.51" r="2.00" style="fill:green" />
<circle cx="24.85" cy="644.50" r="2.00" style="fill:green" />
<circle cx="20.71" cy="629.34" r="2.00" style="fill:green" />
<circle cx="17.04" cy="614.07" r="2.00" style="fill:green" />
<circle cx="13.86" cy="598.69" r="2.00" style="fill:green" />
<circle cx="11.16" cy="583.22" r="2.00" style="fill:green" />
<circle cx="8.94" cy="567.67" r="2.00" style="fill:green" />
<circle cx="7.22" cy="552.05" r="2.00" style="fill:green" />
<circle cx="5.99" cy="536.40" r="2.00" style="fill:green" />
<circle cx="5.25" cy="520.71" r="2.00" style="fill:green" />
<circle cx="5.00" cy="505.00" r="2.00" style="fill:green" />
<circle cx="5.25" cy="489.29" r="2.00" style="fill:green" />
<circle cx="5.99" cy="473.60" r="2.00" style="fill:green" />
<circle cx="7.22" cy="457.95" r="2.00" style="fill:green" />
<circle cx="8.94" cy="442.33" r="2.00" style="fill:green" />
<circle cx="11.16" cy="426.78" r="2.00" style="fill:green" />
<circle cx="13.86" cy="411.31" r="2.00" style="fill:green" />
<circle cx="17.04" cy="395.93" r="2.00" style="fill:green" />
<circle cx="20.71" cy="380.66" r="2.00" style="fill:green" />
<circle cx="24.85" cy="365.50" r="2.00" style="fill:green" />
<circle cx="29.47" cy="350.49" r="2.00" style="fill:green" />
<circle cx="34.56" cy="335.63" r="2.00" style="fill:green" />
<circle cx="40.11" cy="320.94" r="2.00" style="fill:green" />
<circle cx="46.12" cy="306.43" r="2.00" style="fill:green" />
<circle cx="52.59" cy="292.11" r="2.00" style="fill:green" />
<circle cx="59.50" cy="278.00" r="2.00" style="fill:green" />
<circle cx="66.85" cy="264.12" r="2.00" style="fill:green" />
<circle cx="74.63" cy="250.48" r="2.00" style="fill:green" />
<circle cx="82.84" cy="237.09" r="2.00" style="fill:green" />
<circle cx="91.46" cy="223.96" r="2.00" style="fill:green" />
<circle cx="100.49" cy="211.11" r="2.00" style="fill:green" />
<circle cx="109.92" cy="198.55" r="2.00" style="fill:green" />
<circle cx="119.74" cy="186.29" r="2.00" style="fill:green" />
<circle cx="129.94" cy="174.34" r="2.00" style="fill:green" />
<circle cx="140.52" cy="162.73" r="2.00" style="fill:green" />
<circle cx="151.45" cy="151.45" r="2.00" style="fill:green" />
<circle cx="162.73" cy="140.52" r="2.00" style="fill:green" />
<circle cx="174.34" cy="129.94" r="2.00" style="fill:green" />
<circle cx="186.29" cy="119.74" r="2.00" style="fill:green" />
<circle cx="198.55" cy="109.92" r="2.00" style="fill:green" />
<circle cx="211.11" cy="100.49" r="2.00" style="fill:green" />
<circle cx="223.96" cy="91.46" r="2.00" style="fill:green" />
<circle cx="237.09" cy="82.84" r="2.00" style="fill:green" />
<circle cx="250.48" cy="74.63" r="2.00" style="fill:green" />
<circle cx="264.12" cy="66.85" r="2.00" style="fill:green" />
<circle cx="278.00" cy="59.50" r="2.00" style="fill:green" />
<circle cx="292.11" cy="52.59" r="2.00" style="fill:green" />
<circle cx="306.43" cy="46.12" r="2.00" style="fill:green" />
<circle cx="320.94" cy="40.11" r="2.00" style="fill:green" />
<circle cx="335.63" cy="34.56" r="2.00" style="fill:green" />
<circle cx="350.49" cy="29.47" r="2.00" style="fill:green" />
<circle cx="365.50" cy="24.85" r="2.00" style="fill:green" />
<circle cx="380.66" cy="20.71" r="2.00" style="fill:green" />
<circle cx="395.93" cy="17.04" r="2.00" style="fill:green" />
<circle cx="411.31" cy="13.86" r="2.00" style="fill:green" />
<circle cx="426.78" cy="11.16" r="2.00" style="fill:green" />
<circle cx="442.33" cy="8.94" r="2.00" style="fill:green" />
<circle cx="457.95" cy="7.22" r="2.00" style="fill:green" />
<circle cx="473.60" cy="5.99" r="2.00" style="fill:green" />
<circle cx="489.29" cy="5.25" r="2.00" style="fill:green" />
<circle cx="505.00" cy="5.00" r="2.00" style="fill:green" />
<circle cx="520.71" cy="5.25" r="2.00" style="fill:green" />
<circle cx="536.40" cy="5.99" r="2.00" style="fill:green" />
<circle cx="552.05" cy="7.22" r="2.00" style="fill:green" />
<circle cx="567.67" cy="8.94" r="2.00" style="fill:green" />
<circle cx="583.22" cy="11.16" r="2.00" style="fill:green" />
<circle cx="598.69" cy="13.86" r="2.00" style="fill:green" />
<circle cx="614.07" cy="17.04" r="2.00" style="fill:green" />
<circle cx="629.34" cy="20.71" r="2.00" style="fill:green" />
<circle cx="644.50" cy="24.85" r="2.00" style="fill:green" />
<circle cx="659.51" cy="29.47" r="2.00" style="fill:green" />
<circle cx="674.37" cy="34.56" r="2.00" style="fill:green" />
<circle cx="689.06" cy="40.11" r="2.00" style="fill:green" />
<circle cx="703.57" cy="46.12" r="2.00" style="fill:green" />
<circle cx="717.89" cy="52.59" r="2.00" style="fill:green" />
<circle cx="732.00" cy="59.50" r="2.00" style="fill:green" />
<circle cx="745.88" cy="66.85" r="2.00" style="fill:green" />
<circle cx="759.52" cy="74.63" r="2.00" style="fill:green" />
<circle cx="772.91" cy="82.84" r="2.00" style="fill:green" />
<circle cx="786.04" cy="91.46" r="2.00" style="fill:green" />
<circle cx="798.89" cy="100.49" r="2.00" style="fill:green" />
<circle cx="811.45" cy="109.92" r="2.00" style="fill:green" />
<circle cx="823.71" cy="119.74" r="2.00" style="fill:green" />
<circle cx="835.66" cy="129.94" r="2.00" style="fill:green" />
<circle cx="847.27" cy="140.52" r="2.00" style="fill:green" />
<circle cx="858.55" cy="151.45" r="2.00" style="fill:green" />
<circle cx="869.48" cy="162.73" r="2.00" style="fill:green" />
<circle cx="880.06" cy="174.34" r="2.00" style="fill:green" />
<circle cx="890.26" cy="186.29" r="2.00" style="fill:green" />
<circle cx="900.08" cy="198.55" r="2.00" style="fill:green" />
<circle cx="909.51" cy="211.11" r="2.00" style="fill:green" />
<circle cx="918.54" cy="223.96" r="2.00" style="fill:green" />
<circle cx="927.16" cy="237.09" r="2.00" style="fill:green" />
<circle cx="935.37" cy="250.48" r="2.00" style="fill:green" />
<circle cx="943.15" cy="264.12" r="2.00" style="fill:green" />
<circle cx="950.50" cy="278.00" r="2.00" style="fill:green" />
<circle cx="957.41" cy="292.11" r="2.00" style="fill:green" />
<circle cx="963.88" cy="306.43" r="2.00" style="fill:green" />
<circle cx="969.89" cy="320.94" r="2.00" style="fill:green" />
<circle cx="975.44" cy="335.63" r="2.00" style="fill:green" />
<circle cx="980.53" cy="350.49" r="2.00" style="fill:green" />
<circle cx="985.15" cy="365.50" r="2.00" style="fill:green" />
<circle cx="989.29" cy="380.66" r="2.00" style="fill:green" />
<circle cx="992.96" cy="395.93" r="2.00" style="fill:green" />
<circle cx="996.14" cy="411.31" r="2.00" style="fill:green" />
<circle cx="998.84" cy="426.78" r="2.00" style="fill:green" />
<circle cx="1001.06" cy="442.33" r="2.00" style="fill:green" />
<circle cx="1002.78" cy="457.95" r="2.00" style="fill:green" />
<circle cx="1004.01" cy="473.60" r="2.00" style="fill:green" />
<circle cx="1004.75" cy="489.29" r="2.00" style="fill:green" />
</svg>
